<svg width="74" height="23" fill="none" xmlns="http://www.w3.org/2000/svg"><path d="M12.585 4.93c.159 0 .278.051.357.153.091.09.136.221.136.391v11.067a.567.567 0 01-.136.391.475.475 0 01-.374.153c-.17 0-.323-.085-.459-.255L4.663 6.783v9.758a.566.566 0 01-.136.391.455.455 0 01-.357.153c-.17 0-.294-.045-.374-.136a.647.647 0 01-.119-.408V5.474a.57.57 0 01.136-.391.551.551 0 01.408-.153c.182 0 .329.085.442.255l7.43 10.03V5.474c0-.159.045-.289.135-.391a.455.455 0 01.357-.153zm9.73 10.302c.102 0 .187.045.255.136.08.08.12.176.12.289 0 .25-.193.493-.579.731a4.962 4.962 0 01-2.584.731c-1.258 0-2.25-.38-2.975-1.139-.725-.76-1.088-1.802-1.088-3.128 0-.85.159-1.598.476-2.244.329-.657.782-1.162 1.36-1.513.59-.363 1.264-.544 2.023-.544 1.066 0 1.904.346 2.516 1.037.624.68.935 1.62.935 2.822 0 .204-.045.357-.136.459-.09.09-.238.136-.442.136h-5.66c.033 1.043.305 1.836.815 2.38.51.544 1.23.816 2.16.816.487 0 .895-.062 1.223-.187.329-.136.68-.312 1.054-.527.25-.17.425-.255.527-.255zm-2.992-5.831c-.793 0-1.428.25-1.904.748-.476.499-.759 1.196-.85 2.091h5.253c-.022-.907-.249-1.604-.68-2.091-.43-.499-1.037-.748-1.819-.748zm12.08 6.783a.53.53 0 01.153.391.49.49 0 01-.153.357.469.469 0 01-.714-.068l-2.907-3.366-2.907 3.366c-.113.136-.244.204-.39.204a.5.5 0 01-.34-.136.52.52 0 01-.137-.357c0-.147.051-.278.153-.391l2.975-3.4-2.873-3.315a.591.591 0 01-.153-.374c0-.147.046-.266.136-.357a.471.471 0 01.34-.153c.148 0 .284.068.408.204l2.788 3.264 2.805-3.264c.125-.136.255-.204.391-.204.125 0 .232.051.323.153.102.09.153.204.153.34a.567.567 0 01-.153.391l-2.873 3.315 2.975 3.4zm5.673.034c.318.034.476.181.476.442a.387.387 0 01-.153.323c-.102.08-.266.113-.493.102l-.476-.034c-.86-.057-1.501-.317-1.92-.782-.409-.476-.613-1.196-.613-2.159V9.588h-1.292a.48.48 0 01-.323-.102.414.414 0 01-.119-.306c0-.125.04-.227.12-.306a.436.436 0 01.322-.119h1.292V6.647c0-.17.046-.3.136-.391a.505.505 0 01.374-.136c.16 0 .284.045.374.136.102.09.153.221.153.391v2.108h2.057c.148 0 .261.04.34.119.08.08.12.181.12.306s-.04.227-.12.306a.508.508 0 01-.34.102h-2.057v4.573c0 .703.136 1.207.408 1.513.272.295.697.465 1.275.51l.46.034zm11.036-5.695c.26 0 .47.08.629.238.159.147.238.346.238.595v3.655c0 .521-.068.89-.204 1.105-.136.215-.414.391-.833.527-.453.159-.98.283-1.581.374-.6.09-1.179.136-1.734.136-1.235 0-2.306-.244-3.213-.731a5.003 5.003 0 01-2.091-2.108c-.476-.93-.714-2.034-.714-3.315 0-1.258.238-2.346.714-3.264.487-.93 1.173-1.638 2.057-2.125.884-.499 1.927-.748 3.128-.748 1.598 0 2.907.43 3.927 1.292.136.125.232.25.289.374a.91.91 0 01.102.442c0 .25-.068.459-.204.629a.612.612 0 01-.493.255 1.07 1.07 0 01-.34-.051 2.487 2.487 0 01-.357-.204c-.499-.351-.963-.595-1.394-.731a4.503 4.503 0 00-1.462-.221c-1.235 0-2.17.368-2.805 1.105-.623.725-.935 1.808-.935 3.247 0 2.947 1.292 4.42 3.876 4.42.77 0 1.541-.108 2.312-.323v-3.009h-1.921c-.272 0-.487-.068-.646-.204-.147-.136-.221-.329-.221-.578 0-.25.074-.442.22-.578.16-.136.375-.204.647-.204h3.009zM52.505 17c-.329 0-.59-.09-.782-.272-.182-.181-.272-.436-.272-.765V6.052c0-.329.09-.584.272-.765.192-.181.453-.272.782-.272h6.137c.328 0 .583.074.765.221.181.147.272.357.272.629 0 .283-.091.504-.272.663-.182.147-.437.221-.765.221h-5.05v3.298h4.71c.328 0 .583.074.765.221.181.147.272.363.272.646 0 .272-.091.482-.272.629-.182.147-.437.221-.765.221h-4.71v3.502h5.05c.328 0 .583.08.765.238.181.147.272.363.272.646 0 .272-.091.482-.272.629-.182.147-.437.221-.765.221h-6.137zM70.539 4.93c.318 0 .567.102.748.306.193.193.29.453.29.782v9.979c0 .329-.097.595-.29.799a.982.982 0 01-.748.306c-.362 0-.64-.13-.833-.391l-6.205-8.075v7.361c0 .329-.09.595-.272.799-.18.204-.43.306-.748.306-.317 0-.566-.102-.748-.306-.18-.204-.272-.47-.272-.799V6.018c0-.329.097-.59.29-.782.192-.204.447-.306.764-.306.352 0 .624.13.816.391l6.188 8.041V6.018c0-.329.091-.59.272-.782a.982.982 0 01.748-.306z" fill="#fff"/></svg>